PathFileType	4	(X/Y/Z)	/Users/itak/Documents/Research/Walk-IL/dataset/trc/00456_00167.trc
DataRate	CameraRate	NumFrames	NumMarkers	Units	OrigDataRate	OrigDataStartFrame	OrigNumFrames
100.000000	100.000000	4	53	mm	100.000000	384	512
Frame#	Time	RPSI			LPSI			L3			STRN			T10			C7			CLAV			RBAK			LBAK			LSHO			LUPA			LAEL			LAOL			LWTS			LWPS			LFRA			LHPS			LHTS			RSHO			RUPA			RAEL			RAOL			RWTS			RWPS			RFRA			RIFD			RHTS			RHPS			RBHD			LFHD			RFHD			LBHD			LHIP			RHIP			RASI			LASI			LKNE			LTHI			LANK			LTIP			LTOE			LMT1			LMT5			LHEE			RKNE			RTHI			RANK			RTIP			RTOE			RMT1			RMT5			RHEE			LIFD			
		X1	Y1	Z1	X2	Y2	Z2	X3	Y3	Z3	X4	Y4	Z4	X5	Y5	Z5	X6	Y6	Z6	X7	Y7	Z7	X8	Y8	Z8	X9	Y9	Z9	X10	Y10	Z10	X11	Y11	Z11	X12	Y12	Z12	X13	Y13	Z13	X14	Y14	Z14	X15	Y15	Z15	X16	Y16	Z16	X17	Y17	Z17	X18	Y18	Z18	X19	Y19	Z19	X20	Y20	Z20	X21	Y21	Z21	X22	Y22	Z22	X23	Y23	Z23	X24	Y24	Z24	X25	Y25	Z25	X26	Y26	Z26	X27	Y27	Z27	X28	Y28	Z28	X29	Y29	Z29	X30	Y30	Z30	X31	Y31	Z31	X32	Y32	Z32	X33	Y33	Z33	X34	Y34	Z34	X35	Y35	Z35	X36	Y36	Z36	X37	Y37	Z37	X38	Y38	Z38	X39	Y39	Z39	X40	Y40	Z40	X41	Y41	Z41	X42	Y42	Z42	X43	Y43	Z43	X44	Y44	Z44	X45	Y45	Z45	X46	Y46	Z46	X47	Y47	Z47	X48	Y48	Z48	X49	Y49	Z49	X50	Y50	Z50	X51	Y51	Z51	X52	Y52	Z52	X53	Y53	Z53	

385	3.84	197.1495819091797	947.5458984375	34.43124008178711	339.2855834960938	936.3583374023438	46.90016555786133	240.8327941894531	1027.513305664062	52.15705490112305	244.5719299316406	1233.548828125	320.7542419433594	238.797119140625	1150.206298828125	33.08225631713867	221.4063720703125	1420.392578125	92.30624389648438	245.9273376464844	1345.10693359375	279.8448486328125	130.0690612792969	1297.929931640625	35.69162750244141	319.2380065917969	1374.604370117188	53.18022918701172	404.7119445800781	1400.884887695312	149.7776794433594	501.7100524902344	1286.697387695312	126.357551574707	551.0189208984375	1076.150390625	131.9662322998047	474.7965393066406	1059.836303710938	65.01047515869141	530.3473510742188	869.84130859375	215.2675170898438	581.26611328125	860.9288330078125	161.8867034912109	568.9476318359375	989.1729736328125	150.7337493896484	588.8853149414062	783.1328125	165.9584350585938	549.35888671875	783.0674438476562	225.9819030761719	65.06475067138672	1392.924682617188	164.435546875	-8.444149017333984	1332.762451171875	141.4085235595703	-72.76322937011719	1056.04052734375	113.0539016723633	-25.57623481750488	1040.520263671875	69.72751617431641	-50.25979995727539	832.753662109375	191.5478668212891	-101.830810546875	833.6874389648438	119.2781448364258	-86.60613250732422	997.7337036132812	110.2547836303711	-57.95672988891602	679.2658081054688	155.9637298583984	-63.16902542114258	733.5137329101562	182.4911804199219	-101.3132858276367	745.6983642578125	117.0328979492188	136.5248107910156	1616.768432617188	163.4728546142578	303.6643981933594	1652.0673828125	279.9981994628906	173.4326477050781	1651.798950195312	292.2997436523438	311.3567504882812	1619.339599609375	131.1432189941406	440.0256652832031	839.88427734375	207.0301208496094	46.81793594360352	840.1136474609375	122.3202743530273	94.94557952880859	871.0662841796875	240.4873352050781	344.0263671875	881.3933715820312	281.2723999023438	385.8756103515625	447.3520202636719	366.97705078125	417.2226257324219	597.9771728515625	336.138427734375	389.7909851074219	36.71088027954102	277.9132385253906	397.8768615722656	290.41357421875	362.4290466308594	295.527099609375	38.23510360717773	505.7404174804688	275.3848266601562	46.20669555664062	426.7646484375	390.1387939453125	40.01394653320312	432.4500732421875	328.0224304199219	43.01818466186523	228.7684020996094	47.71869659423828	462.4389953613281	62.99462127685547	16.81750869750977	696.8984985351562	167.1167144775391	25.08494758605957	128.5449371337891	-242.5162506103516	29.52793502807617	341.7715759277344	-19.21759223937988	122.3982543945312	39.07143402099609	-94.39458465576172	138.7360534667969	61.59860610961914	-143.3355560302734	31.90896797180176	44.62959671020508	-145.0952301025391	62.08406066894531	180.2603759765625	-294.109130859375	551.65869140625	700.1093139648438	208.7313690185547	
386	3.85	199.5138702392578	949.3880615234375	39.9166259765625	341.7021179199219	938.64453125	52.95864486694336	243.6908416748047	1029.885864257812	58.35712051391602	246.5232086181641	1235.36328125	327.2552185058594	242.2706604003906	1152.369140625	39.07818603515625	224.6518707275391	1422.465209960938	98.83174896240234	248.1047668457031	1346.944580078125	286.4769287109375	133.6293792724609	1300.098754882812	41.61417007446289	322.6658020019531	1376.56298828125	60.39701843261719	407.5587158203125	1403.148071289062	157.5184478759766	505.0562133789062	1289.316162109375	134.9345092773438	555.3873901367188	1079.119750976562	141.6990814208984	479.8744812011719	1062.017944335938	74.17062377929688	534.5321655273438	873.8965454101562	227.4005126953125	585.9989624023438	864.3455200195312	174.6311492919922	573.4283447265625	992.4161987304688	161.669921875	593.82275390625	786.6536865234375	179.9840240478516	553.7228393554688	787.4110717773438	239.6172332763672	67.96897888183594	1394.998291015625	170.108154296875	-5.383303642272949	1334.86474609375	146.7400665283203	-70.13949584960938	1058.013916015625	119.7140655517578	-23.07602119445801	1042.116088867188	76.37826538085938	-47.79566955566406	835.6263427734375	200.6694183349609	-99.61354064941406	835.9671630859375	128.4736022949219	-84.07502746582031	999.7605590820312	117.5273666381836	-56.08334732055664	681.7451171875	166.4658050537109	-60.98443222045898	736.2723999023438	192.5408020019531	-99.48784637451172	748.031005859375	127.1527328491211	139.2165374755859	1618.7529296875	170.2056121826172	306.0931091308594	1653.852172851562	287.1837768554688	175.8350219726562	1653.472412109375	299.1531372070312	314.1385803222656	1621.456787109375	138.2229919433594	441.9075317382812	841.5672607421875	213.1522369384766	49.77294158935547	840.9679565429688	127.7781448364258	97.22344207763672	873.0510864257812	245.9224090576172	345.9549865722656	882.97412109375	287.2676391601562	386.4835205078125	447.1724243164062	368.5961608886719	418.013427734375	598.603759765625	340.064697265625	389.8951721191406	36.62279891967773	277.9542236328125	398.2060546875	290.2162475585938	363.4019775390625	295.4676513671875	38.24540328979492	505.6084289550781	275.3618469238281	46.15380096435547	426.7148742675781	390.1013488769531	40.06827926635742	432.3948059082031	328.1764221191406	43.03814315795898	228.7473297119141	47.84444808959961	462.3673706054688	74.88653564453125	17.14700317382812	696.9825439453125	178.2760620117188	26.81326293945312	134.7983856201172	-236.5186157226562	29.82646179199219	342.7916870117188	-8.838354110717773	122.7550582885742	38.22303009033203	-93.34133911132812	139.4900665283203	62.6258430480957	-140.4640045166016	32.50663757324219	46.13734436035156	-142.6886138916016	64.21028137207031	188.1136779785156	-285.6104431152344	556.464111328125	704.1609497070312	223.7157135009766	
387	3.86	201.9041595458984	950.989013671875	45.07181167602539	344.1321716308594	940.6913452148438	58.76525497436523	246.5075836181641	1032.100952148438	64.28745269775391	248.3769378662109	1237.078002929688	333.5399169921875	245.6005096435547	1154.499755859375	44.96033477783203	227.7979125976562	1424.5126953125	105.1985015869141	250.1756439208984	1348.703735351562	292.9313659667969	137.0733032226562	1302.268798828125	47.36629867553711	325.9825439453125	1378.483764648438	67.45909118652344	410.2783813476562	1405.36962890625	165.1263122558594	508.3280334472656	1291.924682617188	143.4833831787109	559.7888793945312	1082.131469726562	151.4680938720703	485.0617065429688	1064.16064453125	83.32511138916016	538.792724609375	878.0171508789062	239.5533447265625	590.829833984375	867.8572387695312	187.4315185546875	577.95947265625	995.7244873046875	172.6539916992188	598.855712890625	790.2854614257812	194.0602569580078	558.162353515625	791.8457641601562	253.2748565673828	70.76805114746094	1397.025390625	175.6558990478516	-2.451371192932129	1336.963989257812	151.9325408935547	-67.65831756591797	1059.943969726562	126.1431732177734	-20.70528030395508	1043.645141601562	82.77715301513672	-45.67280578613281	838.7565307617188	210.0082702636719	-97.49081420898438	838.265380859375	137.7263336181641	-81.69847869873047	1001.752990722656	124.5897369384766	-54.67644119262695	684.4197998046875	177.9045257568359	-59.27727508544922	739.3338012695312	203.2095489501953	-97.83856964111328	750.3865356445312	137.7039489746094	141.8212738037109	1620.715942382812	176.7755889892578	308.4631042480469	1655.572387695312	294.1802368164062	178.1837921142578	1655.109619140625	305.8261108398438	316.843994140625	1623.51123046875	145.11669921875	443.7960510253906	843.0382690429688	219.1379241943359	52.52851486206055	841.8038330078125	133.0839538574219	99.37159729003906	875.0136108398438	251.1227874755859	347.9191589355469	884.4036254882812	293.0485534667969	387.0162658691406	446.9464721679688	369.9575805664062	418.7366638183594	599.0008544921875	343.6549072265625	389.9684753417969	36.53683090209961	277.9761047363281	398.4619445800781	290.0123291015625	364.2057495117188	295.3948974609375	38.2626953125	505.4717712402344	275.322998046875	46.09195327758789	426.6596374511719	390.0355224609375	40.13857650756836	432.3360290527344	328.2987365722656	43.02085494995117	228.7131805419922	47.93916320800781	462.3105773925781	86.95505523681641	17.45169258117676	697.0783081054688	189.6178588867188	28.59197807312012	141.2492218017578	-229.9235076904297	30.14183044433594	343.8046875	1.828054308891296	123.1486968994141	37.15094375610352	-91.89019775390625	140.2937469482422	63.82286071777344	-137.1933288574219	33.12283325195312	48.02528762817383	-139.8189697265625	66.36500549316406	195.9653778076172	-276.6391296386719	561.3660888671875	708.3336791992188	238.741943359375	
388	3.87	204.3619384765625	952.3350830078125	49.89709854125977	346.6138610839844	942.519287109375	64.35549163818359	249.3366546630859	1034.145629882812	69.95072174072266	250.1279754638672	1238.668823242188	339.60791015625	248.8194427490234	1156.59619140625	50.76106643676758	230.835205078125	1426.519897460938	111.4079742431641	252.1376342773438	1350.36279296875	299.2105407714844	140.3920440673828	1304.417236328125	52.95837020874023	329.1834411621094	1380.36328125	74.35657501220703	412.8638305664062	1407.52294921875	172.5867462158203	511.5108642578125	1294.49365234375	151.9833984375	564.2120971679688	1085.158935546875	161.2713165283203	490.3433532714844	1066.234497070312	92.47924041748047	543.1282958984375	882.1734008789062	251.7068786621094	595.748779296875	871.4407348632812	200.2636871337891	582.528564453125	999.0711669921875	183.6753845214844	603.9741821289062	794.0047607421875	208.1583404541016	562.6818237304688	796.3424072265625	266.9341735839844	73.45290374755859	1398.981567382812	181.0926818847656	0.3444563746452332	1339.02490234375	157.0078277587891	-65.33493804931641	1061.82275390625	132.3383331298828	-18.48654174804688	1045.09326171875	88.92046356201172	-43.89623641967773	842.117431640625	219.4993743896484	-95.47344207763672	840.5645751953125	146.9925994873047	-79.48853302001953	1003.693786621094	131.4405364990234	-53.70820999145508	687.3133544921875	190.2342987060547	-58.03274917602539	742.7026977539062	214.4328155517578	-96.34416198730469	752.7517700195312	148.6371917724609	144.3337554931641	1622.639892578125	183.1793670654297	310.7763061523438	1657.223999023438	300.9780883789062	180.4805450439453	1656.703369140625	312.3105773925781	319.4653930664062	1625.483520507812	151.8240661621094	445.676513671875	844.2588500976562	224.9677734375	55.05938720703125	842.64306640625	138.1973114013672	101.3485641479492	876.9246826171875	256.0633239746094	349.8906860351562	885.6411743164062	298.6321105957031	387.5050354003906	446.6564636230469	371.0873107910156	419.427490234375	599.1159057617188	346.8491821289062	390.0087890625	36.45343780517578	277.9787292480469	398.6748046875	289.7931213378906	364.8589172363281	295.3118896484375	38.28804016113281	505.3356323242188	275.2713012695312	46.02384567260742	426.6023864746094	389.9489440917969	40.2171516418457	432.272705078125	328.3904113769531	42.97095489501953	228.6663055419922	48.03766632080078	462.3185424804688	99.14256286621094	17.76199913024902	697.2365112304688	201.0843048095703	30.38594627380371	147.8522491455078	-222.7212829589844	30.48959732055664	344.8465270996094	12.7315149307251	123.4686279296875	35.90013885498047	-89.93071746826172	141.0946960449219	65.20816040039062	-133.4145812988281	33.71942138671875	50.3375244140625	-136.4402160644531	68.56018829345703	203.7494506835938	-267.2622985839844	566.3657836914062	712.6028442382812	253.7835083007812	
